{
    "asset" : {
        "generator" : "Khronos glTF Blender I/O v1.6.16",
        "version" : "2.0"
    },
    "scene" : 0,
    "scenes" : [
        {
            "name" : "Scene",
            "nodes" : [
                0,
                1
            ]
        }
    ],
    "nodes" : [
        {
            "mesh" : 0,
            "name" : "Net",
            "rotation" : [
                0.7071068286895752,
                0,
                0,
                0.7071067094802856
            ]
        },
        {
            "mesh" : 1,
            "name" : "Frame",
            "rotation" : [
                0.7071068286895752,
                0,
                0,
                0.7071067094802856
            ]
        }
    ],
    "materials" : [
        {
            "doubleSided" : true,
            "name" : "default",
            "pbrMetallicRoughness" : {
                "baseColorFactor" : [
                    0.800000011920929,
                    0.800000011920929,
                    0.800000011920929,
                    1
                ],
                "metallicFactor" : 0,
                "roughnessFactor" : 0.5
            }
        }
    ],
    "meshes" : [
        {
            "name" : "Net",
            "primitives" : [
                {
                    "attributes" : {
                        "POSITION" : 0,
                        "NORMAL" : 1,
                        "TEXCOORD_0" : 2
                    },
                    "indices" : 3,
                    "material" : 0
                }
            ]
        },
        {
            "name" : "Frame",
            "primitives" : [
                {
                    "attributes" : {
                        "POSITION" : 4,
                        "NORMAL" : 5,
                        "TEXCOORD_0" : 6
                    },
                    "indices" : 7,
                    "material" : 0
                }
            ]
        }
    ],
    "accessors" : [
        {
            "bufferView" : 0,
            "componentType" : 5126,
            "count" : 38464,
            "max" : [
                500.51068115234375,
                100.5609130859375,
                1.9910420179367065
            ],
            "min" : [
                -0.9598472118377686,
                -74.09998321533203,
                -203.4019775390625
            ],
            "type" : "VEC3"
        },
        {
            "bufferView" : 1,
            "componentType" : 5126,
            "count" : 38464,
            "type" : "VEC3"
        },
        {
            "bufferView" : 2,
            "componentType" : 5126,
            "count" : 38464,
            "type" : "VEC2"
        },
        {
            "bufferView" : 3,
            "componentType" : 5123,
            "count" : 70656,
            "type" : "SCALAR"
        },
        {
            "bufferView" : 4,
            "componentType" : 5126,
            "count" : 2793,
            "max" : [
                504.001953125,
                105.98410034179688,
                4.002386569976807
            ],
            "min" : [
                -4.002386569976807,
                -75.00194549560547,
                -205.4864959716797
            ],
            "type" : "VEC3"
        },
        {
            "bufferView" : 5,
            "componentType" : 5126,
            "count" : 2793,
            "type" : "VEC3"
        },
        {
            "bufferView" : 6,
            "componentType" : 5126,
            "count" : 2793,
            "type" : "VEC2"
        },
        {
            "bufferView" : 7,
            "componentType" : 5123,
            "count" : 13032,
            "type" : "SCALAR"
        }
    ],
    "bufferViews" : [
        {
            "buffer" : 0,
            "byteLength" : 461568,
            "byteOffset" : 0
        },
        {
            "buffer" : 0,
            "byteLength" : 461568,
            "byteOffset" : 461568
        },
        {
            "buffer" : 0,
            "byteLength" : 307712,
            "byteOffset" : 923136
        },
        {
            "buffer" : 0,
            "byteLength" : 141312,
            "byteOffset" : 1230848
        },
        {
            "buffer" : 0,
            "byteLength" : 33516,
            "byteOffset" : 1372160
        },
        {
            "buffer" : 0,
            "byteLength" : 33516,
            "byteOffset" : 1405676
        },
        {
            "buffer" : 0,
            "byteLength" : 22344,
            "byteOffset" : 1439192
        },
        {
            "buffer" : 0,
            "byteLength" : 26064,
            "byteOffset" : 1461536
        }
    ],
    "buffers" : [
        {
            "byteLength" : 1487600,
            "uri" : "data:application/octet-stream;base64,"
        }
    ]
}
