{
    "asset" : {
        "generator" : "Khronos glTF Blender I/O v1.6.16",
        "version" : "2.0"
    },
    "scene" : 0,
    "scenes" : [
        {
            "name" : "Scene",
            "nodes" : [
                0
            ]
        }
    ],
    "nodes" : [
        {
            "mesh" : 0,
            "name" : "Icosphere_Icosphere.006"
        }
    ],
    "materials" : [
        {
            "name" : "white",
            "pbrMetallicRoughness" : {
                "baseColorTexture" : {
                    "index" : 0
                },
                "metallicFactor" : 0,
                "roughnessFactor" : 0.9039215445518494
            }
        },
        {
            "name" : "black",
            "pbrMetallicRoughness" : {
                "baseColorTexture" : {
                    "index" : 1
                },
                "metallicFactor" : 0,
                "roughnessFactor" : 0.9039215445518494
            }
        }
    ],
    "meshes" : [
        {
            "name" : "Icosphere_Icosphere.006-Mesh",
            "primitives" : [
                {
                    "attributes" : {
                        "POSITION" : 0,
                        "NORMAL" : 1,
                        "TEXCOORD_0" : 2
                    },
                    "indices" : 3,
                    "material" : 0
                },
                {
                    "attributes" : {
                        "POSITION" : 4,
                        "NORMAL" : 5,
                        "TEXCOORD_0" : 6
                    },
                    "indices" : 7,
                    "material" : 1
                }
            ]
        }
    ],
    "textures" : [
        {
            "sampler" : 0,
            "source" : 0
        },
        {
            "sampler" : 0,
            "source" : 1
        }
    ],
    "images" : [
        {
            "bufferView" : 4,
            "mimeType" : "image/jpeg",
            "name" : "white"
        },
        {
            "bufferView" : 9,
            "mimeType" : "image/jpeg",
            "name" : "black"
        }
    ],
    "accessors" : [
        {
            "bufferView" : 0,
            "componentType" : 5126,
            "count" : 5901,
            "max" : [
                0.7327309846878052,
                0.6994479894638062,
                0.7327679991722107
            ],
            "min" : [
                -0.7327309846878052,
                -0.7000439763069153,
                -0.7327679991722107
            ],
            "type" : "VEC3"
        },
        {
            "bufferView" : 1,
            "componentType" : 5126,
            "count" : 5901,
            "type" : "VEC3"
        },
        {
            "bufferView" : 2,
            "componentType" : 5126,
            "count" : 5901,
            "type" : "VEC2"
        },
        {
            "bufferView" : 3,
            "componentType" : 5123,
            "count" : 24720,
            "type" : "SCALAR"
        },
        {
            "bufferView" : 5,
            "componentType" : 5126,
            "count" : 3212,
            "max" : [
                0.7233060002326965,
                0.7328060269355774,
                0.7162460088729858
            ],
            "min" : [
                -0.7233060002326965,
                -0.7328060269355774,
                -0.7162460088729858
            ],
            "type" : "VEC3"
        },
        {
            "bufferView" : 6,
            "componentType" : 5126,
            "count" : 3212,
            "type" : "VEC3"
        },
        {
            "bufferView" : 7,
            "componentType" : 5126,
            "count" : 3212,
            "type" : "VEC2"
        },
        {
            "bufferView" : 8,
            "componentType" : 5123,
            "count" : 14880,
            "type" : "SCALAR"
        }
    ],
    "bufferViews" : [
        {
            "buffer" : 0,
            "byteLength" : 70812,
            "byteOffset" : 0
        },
        {
            "buffer" : 0,
            "byteLength" : 70812,
            "byteOffset" : 70812
        },
        {
            "buffer" : 0,
            "byteLength" : 47208,
            "byteOffset" : 141624
        },
        {
            "buffer" : 0,
            "byteLength" : 49440,
            "byteOffset" : 188832
        },
        {
            "buffer" : 0,
            "byteLength" : 86474,
            "byteOffset" : 238272
        },
        {
            "buffer" : 0,
            "byteLength" : 38544,
            "byteOffset" : 324748
        },
        {
            "buffer" : 0,
            "byteLength" : 38544,
            "byteOffset" : 363292
        },
        {
            "buffer" : 0,
            "byteLength" : 25696,
            "byteOffset" : 401836
        },
        {
            "buffer" : 0,
            "byteLength" : 29760,
            "byteOffset" : 427532
        },
        {
            "buffer" : 0,
            "byteLength" : 87922,
            "byteOffset" : 457292
        }
    ],
    "samplers" : [
        {
            "magFilter" : 9729,
            "minFilter" : 9987
        }
    ],
    "buffers" : [
        {
            "byteLength" : 545216,
            "uri" : "data:application/octet-stream;base64,"
        }
    ]
}
