{
    "asset" : {
        "generator" : "Khronos glTF Blender I/O v1.6.16",
        "version" : "2.0"
    },
    "scene" : 0,
    "scenes" : [
        {
            "name" : "Football_Player",
            "nodes" : [
                9
            ]
        }
    ],
    "nodes" : [
        {
            "mesh" : 0,
            "name" : "Beards"
        },
        {
            "mesh" : 1,
            "name" : "Body"
        },
        {
            "mesh" : 2,
            "name" : "Bottoms"
        },
        {
            "mesh" : 3,
            "name" : "Eyes"
        },
        {
            "mesh" : 4,
            "name" : "Gloves"
        },
        {
            "mesh" : 5,
            "name" : "Hair"
        },
        {
            "mesh" : 6,
            "name" : "Shoes"
        },
        {
            "mesh" : 7,
            "name" : "Socks"
        },
        {
            "mesh" : 8,
            "name" : "Tops"
        },
        {
            "children" : [
                0,
                1,
                2,
                3,
                4,
                5,
                6,
                7,
                8
            ],
            "name" : "Player_root",
            "scale" : [
                0.009999999776482582,
                0.009999999776482582,
                0.009999999776482582
            ]
        }
    ],
    "materials" : [
        {
            "doubleSided" : true,
            "name" : "BeardsMat",
            "pbrMetallicRoughness" : {
                "baseColorFactor" : [
                    0.07227187603712082,
                    0.0382043682038784,
                    0.01096009835600853,
                    1
                ],
                "metallicFactor" : 0,
                "roughnessFactor" : 0.5
            }
        },
        {
            "doubleSided" : true,
            "name" : "BodyMat",
            "pbrMetallicRoughness" : {
                "baseColorFactor" : [
                    0.879622757434845,
                    0.5394796133041382,
                    0.20507879555225372,
                    1
                ],
                "metallicFactor" : 0,
                "roughnessFactor" : 1
            }
        },
        {
            "doubleSided" : true,
            "name" : "BottomsMat",
            "pbrMetallicRoughness" : {
                "baseColorFactor" : [
                    0.06300994753837585,
                    0.3467040956020355,
                    0.5394796133041382,
                    1
                ],
                "metallicFactor" : 0,
                "roughnessFactor" : 1
            }
        },
        {
            "doubleSided" : true,
            "name" : "EyesMat",
            "pbrMetallicRoughness" : {
                "baseColorFactor" : [
                    0.4798471927642822,
                    0.4221940338611603,
                    0.4070110023021698,
                    1
                ],
                "metallicFactor" : 0,
                "roughnessFactor" : 1
            }
        },
        {
            "doubleSided" : true,
            "name" : "GlovesMat",
            "pbrMetallicRoughness" : {
                "baseColorFactor" : [
                    0.137409046292305,
                    0.0026516704820096493,
                    0.004199403803795576,
                    1
                ],
                "metallicFactor" : 0.10000000149011612,
                "roughnessFactor" : 0.5
            }
        },
        {
            "doubleSided" : true,
            "name" : "HairMat",
            "pbrMetallicRoughness" : {
                "baseColorFactor" : [
                    0.07227187603712082,
                    0.0382043682038784,
                    0.01096009835600853,
                    1
                ],
                "metallicFactor" : 0,
                "roughnessFactor" : 0.5
            }
        },
        {
            "doubleSided" : true,
            "name" : "ShoesMat",
            "pbrMetallicRoughness" : {
                "baseColorFactor" : [
                    0.2348448783159256,
                    0.009025788865983486,
                    0.6444780826568604,
                    1
                ],
                "metallicFactor" : 0,
                "roughnessFactor" : 1
            }
        },
        {
            "doubleSided" : true,
            "name" : "SocksMat",
            "pbrMetallicRoughness" : {
                "baseColorFactor" : [
                    0.7948384284973145,
                    0.7948384284973145,
                    0.7948384284973145,
                    1
                ],
                "metallicFactor" : 0,
                "roughnessFactor" : 1
            }
        },
        {
            "doubleSided" : true,
            "name" : "TopsMat",
            "pbrMetallicRoughness" : {
                "baseColorFactor" : [
                    0.06300994753837585,
                    0.3467040956020355,
                    0.5394796133041382,
                    1
                ],
                "metallicFactor" : 0,
                "roughnessFactor" : 1
            }
        }
    ],
    "meshes" : [
        {
            "name" : "Beards",
            "primitives" : [
                {
                    "attributes" : {
                        "POSITION" : 0,
                        "NORMAL" : 1,
                        "TEXCOORD_0" : 2
                    },
                    "indices" : 3,
                    "material" : 0
                }
            ]
        },
        {
            "name" : "Body",
            "primitives" : [
                {
                    "attributes" : {
                        "POSITION" : 4,
                        "NORMAL" : 5,
                        "TEXCOORD_0" : 6
                    },
                    "indices" : 7,
                    "material" : 1
                }
            ]
        },
        {
            "name" : "Bottoms",
            "primitives" : [
                {
                    "attributes" : {
                        "POSITION" : 8,
                        "NORMAL" : 9,
                        "TEXCOORD_0" : 10
                    },
                    "indices" : 11,
                    "material" : 2
                }
            ]
        },
        {
            "name" : "Eyes",
            "primitives" : [
                {
                    "attributes" : {
                        "POSITION" : 12,
                        "NORMAL" : 13,
                        "TEXCOORD_0" : 14
                    },
                    "indices" : 15,
                    "material" : 3
                }
            ]
        },
        {
            "name" : "Gloves",
            "primitives" : [
                {
                    "attributes" : {
                        "POSITION" : 16,
                        "NORMAL" : 17,
                        "TEXCOORD_0" : 18
                    },
                    "indices" : 19,
                    "material" : 4
                }
            ]
        },
        {
            "name" : "Hair",
            "primitives" : [
                {
                    "attributes" : {
                        "POSITION" : 20,
                        "NORMAL" : 21,
                        "TEXCOORD_0" : 22
                    },
                    "indices" : 23,
                    "material" : 5
                }
            ]
        },
        {
            "name" : "Shoes",
            "primitives" : [
                {
                    "attributes" : {
                        "POSITION" : 24,
                        "NORMAL" : 25,
                        "TEXCOORD_0" : 26
                    },
                    "indices" : 27,
                    "material" : 6
                }
            ]
        },
        {
            "name" : "Socks",
            "primitives" : [
                {
                    "attributes" : {
                        "POSITION" : 28,
                        "NORMAL" : 29,
                        "TEXCOORD_0" : 30
                    },
                    "indices" : 31,
                    "material" : 7
                }
            ]
        },
        {
            "name" : "Tops",
            "primitives" : [
                {
                    "attributes" : {
                        "POSITION" : 32,
                        "NORMAL" : 33,
                        "TEXCOORD_0" : 34
                    },
                    "indices" : 35,
                    "material" : 8
                }
            ]
        }
    ],
    "accessors" : [
        {
            "bufferView" : 0,
            "componentType" : 5126,
            "count" : 2959,
            "max" : [
                8.05965805053711,
                167.79148864746094,
                11.622530937194824
            ],
            "min" : [
                -8.061599731445312,
                152.68112182617188,
                -0.18420200049877167
            ],
            "type" : "VEC3"
        },
        {
            "bufferView" : 1,
            "componentType" : 5126,
            "count" : 2959,
            "type" : "VEC3"
        },
        {
            "bufferView" : 2,
            "componentType" : 5126,
            "count" : 2959,
            "type" : "VEC2"
        },
        {
            "bufferView" : 3,
            "componentType" : 5123,
            "count" : 8352,
            "type" : "SCALAR"
        },
        {
            "bufferView" : 4,
            "componentType" : 5126,
            "count" : 6084,
            "max" : [
                73.30783081054688,
                179.3404541015625,
                14.5654878616333
            ],
            "min" : [
                -73.30801391601562,
                5.0773091316223145,
                -13.420747756958008
            ],
            "type" : "VEC3"
        },
        {
            "bufferView" : 5,
            "componentType" : 5126,
            "count" : 6084,
            "type" : "VEC3"
        },
        {
            "bufferView" : 6,
            "componentType" : 5126,
            "count" : 6084,
            "type" : "VEC2"
        },
        {
            "bufferView" : 7,
            "componentType" : 5123,
            "count" : 32124,
            "type" : "SCALAR"
        },
        {
            "bufferView" : 8,
            "componentType" : 5126,
            "count" : 473,
            "max" : [
                19.935867309570312,
                102.87023162841797,
                16.403955459594727
            ],
            "min" : [
                -19.764297485351562,
                50.2816162109375,
                -14.473969459533691
            ],
            "type" : "VEC3"
        },
        {
            "bufferView" : 9,
            "componentType" : 5126,
            "count" : 473,
            "type" : "VEC3"
        },
        {
            "bufferView" : 10,
            "componentType" : 5126,
            "count" : 473,
            "type" : "VEC2"
        },
        {
            "bufferView" : 11,
            "componentType" : 5123,
            "count" : 2310,
            "type" : "SCALAR"
        },
        {
            "bufferView" : 12,
            "componentType" : 5126,
            "count" : 804,
            "max" : [
                4.658572196960449,
                169.12615966796875,
                10.702004432678223
            ],
            "min" : [
                -4.655183792114258,
                165.7027130126953,
                7.285027980804443
            ],
            "type" : "VEC3"
        },
        {
            "bufferView" : 13,
            "componentType" : 5126,
            "count" : 804,
            "type" : "VEC3"
        },
        {
            "bufferView" : 14,
            "componentType" : 5126,
            "count" : 804,
            "type" : "VEC2"
        },
        {
            "bufferView" : 15,
            "componentType" : 5123,
            "count" : 4560,
            "type" : "SCALAR"
        },
        {
            "bufferView" : 16,
            "componentType" : 5126,
            "count" : 1506,
            "max" : [
                97.13449096679688,
                144.39205932617188,
                5.013392925262451
            ],
            "min" : [
                -97.13522338867188,
                132.6800994873047,
                -11.036911964416504
            ],
            "type" : "VEC3"
        },
        {
            "bufferView" : 17,
            "componentType" : 5126,
            "count" : 1506,
            "type" : "VEC3"
        },
        {
            "bufferView" : 18,
            "componentType" : 5126,
            "count" : 1506,
            "type" : "VEC2"
        },
        {
            "bufferView" : 19,
            "componentType" : 5123,
            "count" : 7206,
            "type" : "SCALAR"
        },
        {
            "bufferView" : 20,
            "componentType" : 5126,
            "count" : 6541,
            "max" : [
                9.225946426391602,
                180.60556030273438,
                15.836504936218262
            ],
            "min" : [
                -9.124462127685547,
                158.337646484375,
                -9.730549812316895
            ],
            "type" : "VEC3"
        },
        {
            "bufferView" : 21,
            "componentType" : 5126,
            "count" : 6541,
            "type" : "VEC3"
        },
        {
            "bufferView" : 22,
            "componentType" : 5126,
            "count" : 6541,
            "type" : "VEC2"
        },
        {
            "bufferView" : 23,
            "componentType" : 5123,
            "count" : 20736,
            "type" : "SCALAR"
        },
        {
            "bufferView" : 24,
            "componentType" : 5126,
            "count" : 1350,
            "max" : [
                18.600492477416992,
                12.144691467285156,
                20.80579376220703
            ],
            "min" : [
                -18.582096099853516,
                -1.8441495895385742,
                -12.978270530700684
            ],
            "type" : "VEC3"
        },
        {
            "bufferView" : 25,
            "componentType" : 5126,
            "count" : 1350,
            "type" : "VEC3"
        },
        {
            "bufferView" : 26,
            "componentType" : 5126,
            "count" : 1350,
            "type" : "VEC2"
        },
        {
            "bufferView" : 27,
            "componentType" : 5123,
            "count" : 5856,
            "type" : "SCALAR"
        },
        {
            "bufferView" : 28,
            "componentType" : 5126,
            "count" : 416,
            "max" : [
                17.38808822631836,
                47.491146087646484,
                5.6040425300598145
            ],
            "min" : [
                -17.38820457458496,
                5.0773091316223145,
                -14.712093353271484
            ],
            "type" : "VEC3"
        },
        {
            "bufferView" : 29,
            "componentType" : 5126,
            "count" : 416,
            "type" : "VEC3"
        },
        {
            "bufferView" : 30,
            "componentType" : 5126,
            "count" : 416,
            "type" : "VEC2"
        },
        {
            "bufferView" : 31,
            "componentType" : 5123,
            "count" : 1872,
            "type" : "SCALAR"
        },
        {
            "bufferView" : 32,
            "componentType" : 5126,
            "count" : 733,
            "max" : [
                36.150733947753906,
                154.65733337402344,
                18.086545944213867
            ],
            "min" : [
                -36.19768524169922,
                89.55641174316406,
                -18.10283851623535
            ],
            "type" : "VEC3"
        },
        {
            "bufferView" : 33,
            "componentType" : 5126,
            "count" : 733,
            "type" : "VEC3"
        },
        {
            "bufferView" : 34,
            "componentType" : 5126,
            "count" : 733,
            "type" : "VEC2"
        },
        {
            "bufferView" : 35,
            "componentType" : 5123,
            "count" : 3120,
            "type" : "SCALAR"
        }
    ],
    "bufferViews" : [
        {
            "buffer" : 0,
            "byteLength" : 35508,
            "byteOffset" : 0
        },
        {
            "buffer" : 0,
            "byteLength" : 35508,
            "byteOffset" : 35508
        },
        {
            "buffer" : 0,
            "byteLength" : 23672,
            "byteOffset" : 71016
        },
        {
            "buffer" : 0,
            "byteLength" : 16704,
            "byteOffset" : 94688
        },
        {
            "buffer" : 0,
            "byteLength" : 73008,
            "byteOffset" : 111392
        },
        {
            "buffer" : 0,
            "byteLength" : 73008,
            "byteOffset" : 184400
        },
        {
            "buffer" : 0,
            "byteLength" : 48672,
            "byteOffset" : 257408
        },
        {
            "buffer" : 0,
            "byteLength" : 64248,
            "byteOffset" : 306080
        },
        {
            "buffer" : 0,
            "byteLength" : 5676,
            "byteOffset" : 370328
        },
        {
            "buffer" : 0,
            "byteLength" : 5676,
            "byteOffset" : 376004
        },
        {
            "buffer" : 0,
            "byteLength" : 3784,
            "byteOffset" : 381680
        },
        {
            "buffer" : 0,
            "byteLength" : 4620,
            "byteOffset" : 385464
        },
        {
            "buffer" : 0,
            "byteLength" : 9648,
            "byteOffset" : 390084
        },
        {
            "buffer" : 0,
            "byteLength" : 9648,
            "byteOffset" : 399732
        },
        {
            "buffer" : 0,
            "byteLength" : 6432,
            "byteOffset" : 409380
        },
        {
            "buffer" : 0,
            "byteLength" : 9120,
            "byteOffset" : 415812
        },
        {
            "buffer" : 0,
            "byteLength" : 18072,
            "byteOffset" : 424932
        },
        {
            "buffer" : 0,
            "byteLength" : 18072,
            "byteOffset" : 443004
        },
        {
            "buffer" : 0,
            "byteLength" : 12048,
            "byteOffset" : 461076
        },
        {
            "buffer" : 0,
            "byteLength" : 14412,
            "byteOffset" : 473124
        },
        {
            "buffer" : 0,
            "byteLength" : 78492,
            "byteOffset" : 487536
        },
        {
            "buffer" : 0,
            "byteLength" : 78492,
            "byteOffset" : 566028
        },
        {
            "buffer" : 0,
            "byteLength" : 52328,
            "byteOffset" : 644520
        },
        {
            "buffer" : 0,
            "byteLength" : 41472,
            "byteOffset" : 696848
        },
        {
            "buffer" : 0,
            "byteLength" : 16200,
            "byteOffset" : 738320
        },
        {
            "buffer" : 0,
            "byteLength" : 16200,
            "byteOffset" : 754520
        },
        {
            "buffer" : 0,
            "byteLength" : 10800,
            "byteOffset" : 770720
        },
        {
            "buffer" : 0,
            "byteLength" : 11712,
            "byteOffset" : 781520
        },
        {
            "buffer" : 0,
            "byteLength" : 4992,
            "byteOffset" : 793232
        },
        {
            "buffer" : 0,
            "byteLength" : 4992,
            "byteOffset" : 798224
        },
        {
            "buffer" : 0,
            "byteLength" : 3328,
            "byteOffset" : 803216
        },
        {
            "buffer" : 0,
            "byteLength" : 3744,
            "byteOffset" : 806544
        },
        {
            "buffer" : 0,
            "byteLength" : 8796,
            "byteOffset" : 810288
        },
        {
            "buffer" : 0,
            "byteLength" : 8796,
            "byteOffset" : 819084
        },
        {
            "buffer" : 0,
            "byteLength" : 5864,
            "byteOffset" : 827880
        },
        {
            "buffer" : 0,
            "byteLength" : 6240,
            "byteOffset" : 833744
        }
    ],
    "buffers" : [
        {
            "byteLength" : 839984,
            "uri" : "data:application/octet-stream;base64,"
        }
    ]
}
